<svg xmlns="http://www.w3.org/2000/svg"><symbol id="arrow-circle" viewBox="0 0 64 64"><path d="M38.9 20.8c-.369-.369-1.03-.369-1.4 0-.222.221-.295.443-.295.664s.073.516.295.664l8.85 8.85h-32.5c-.517 0-.959.443-.959.959s.442.959.959.959h32.5l-8.85 8.85c-.369.369-.369 1.03 0 1.4.368.369 1.03.369 1.4 0l10.4-10.6c.147-.148.295-.443.295-.664s-.074-.516-.295-.664l-10.5-10.4zm-28.1-10C-.9 22.5-.9 41.6 10.8 53.4c11.7 11.7 30.8 11.7 42.6 0 5.8-6 8.7-13.7 8.7-21.3 0-7.7-2.9-15.4-8.8-21.3C41.5-1 22.5-1 10.8 10.8m43.9 43.8c-12.5 12.5-32.9 12.5-45.3 0C3.13 48.4.03 40.2.03 32S3.13 15.6 9.4 9.4c12.5-12.5 32.8-12.5 45.3 0s12.5 32.8 0 45.3"/></symbol><symbol id="arrow-down" viewBox="-857.9 484.1 100 64"><path d="M-759.5 500.291l-48.5 47.7-48.4-47.6c-3.7-3.6 0-7.3 3.7-11 3.7-3.6 7.4-7.4 11.2-3.6l33.5 33 33.7-33.2c3.7-3.6 7.4 0 11.2 3.6 3.6 3.8 7.3 7.4 3.6 11.1z"/></symbol><symbol id="arrow-up" viewBox="-857.9 484.1 100 64"><path d="M-759.5 531.8l-48.5-47.7-48.4 47.6c-3.7 3.6 0 7.3 3.7 11 3.7 3.6 7.4 7.4 11.2 3.6l33.5-33 33.7 33.2c3.7 3.6 7.4 0 11.2-3.6 3.6-3.8 7.3-7.4 3.6-11.1z"/></symbol><symbol id="bars" viewBox="-931.5 511.5 80 80"><path d="M-931.5 519.5h80v9.1h-80zM-931.5 537.8h80v9.1h-80zM-931.5 556.1h80v9.1h-80zM-931.5 574.4h80v9.1h-80z"/></symbol><symbol id="cog" viewBox="0 0 1792 1792"><path d="M1152 896q0-106-75-181t-181-75-181 75-75 181 75 181 181 75 181-75 75-181zm512-109v222q0 12-8 23t-20 13l-185 28q-19 54-39 91 35 50 107 138 10 12 10 25t-9 23q-27 37-99 108t-94 71q-12 0-26-9l-138-108q-44 23-91 38-16 136-29 186-7 28-36 28H785q-14 0-24.5-8.5T749 1634l-28-184q-49-16-90-37l-141 107q-10 9-25 9-14 0-25-11-126-114-165-168-7-10-7-23 0-12 8-23 15-21 51-66.5t54-70.5q-27-50-41-99l-183-27q-13-2-21-12.5t-8-23.5V783q0-12 8-23t19-13l186-28q14-46 39-92-40-57-107-138-10-12-10-24 0-10 9-23 26-36 98.5-107.5T465 263q13 0 26 10l138 107q44-23 91-38 16-136 29-186 7-28 36-28h222q14 0 24.5 8.5T1043 158l28 184q49 16 90 37l142-107q9-9 24-9 13 0 25 10 129 119 165 170 7 8 7 22 0 12-8 23-15 21-51 66.5t-54 70.5q26 50 41 98l183 28q13 2 21 12.5t8 23.5z"/></symbol><symbol id="dollar" viewBox="-315.1 441.5 64 118"><path d="M-278.2 495.6v-31.8c9.9 1.5 16.3 7.4 16.4 7.5l6.4-6.7c-.4-.4-9.1-8.6-22.9-10.2v-13l-9.3 2.3v10.7c-15.9 1.7-27 12-27 25.6 0 15.2 17.6 20.1 27 22.5v35.2c-7.2-1.5-17.3-5.7-21.1-9.5l-6.6 6.5c5.6 5.5 18.6 10.8 27.7 12.4v12.2l9.3-2.3v-9.7c11.9-1.4 27-8.3 27-24 .2-12.3-9.4-22.1-26.9-27.7zm-9.3-2.5c-7.5-2-17.7-5.6-17.7-12.9 0-9.8 8.5-15 17.7-16.3v29.2zm9.3 44.9v-32.6c8.3 3.1 17.7 8.6 17.7 18.1.1 10.3-11.2 13.5-17.7 14.5z"/></symbol><symbol id="external" viewBox="0 0 511.626 511.627"><path d="M392.857 292.354h-18.274c-2.669 0-4.859.855-6.563 2.573-1.718 1.708-2.573 3.897-2.573 6.563v91.361c0 12.563-4.47 23.315-13.415 32.262-8.945 8.945-19.701 13.414-32.264 13.414H82.224c-12.562 0-23.317-4.469-32.264-13.414-8.945-8.946-13.417-19.698-13.417-32.262V155.31c0-12.562 4.471-23.313 13.417-32.259 8.947-8.947 19.702-13.418 32.264-13.418h200.994c2.669 0 4.859-.859 6.57-2.57 1.711-1.713 2.566-3.9 2.566-6.567V82.221c0-2.662-.855-4.853-2.566-6.563-1.711-1.713-3.901-2.568-6.57-2.568H82.224c-22.648 0-42.016 8.042-58.102 24.125C8.042 113.297 0 132.665 0 155.313v237.542c0 22.647 8.042 42.018 24.123 58.095 16.086 16.084 35.454 24.13 58.102 24.13h237.543c22.647 0 42.017-8.046 58.101-24.13 16.085-16.077 24.127-35.447 24.127-58.095v-91.358c0-2.669-.856-4.859-2.574-6.57-1.713-1.718-3.903-2.573-6.565-2.573z"/><path d="M506.199 41.971c-3.617-3.617-7.905-5.424-12.85-5.424H347.171c-4.948 0-9.233 1.807-12.847 5.424-3.617 3.615-5.428 7.898-5.428 12.847s1.811 9.233 5.428 12.85l50.247 50.248-186.147 186.151c-1.906 1.903-2.856 4.093-2.856 6.563 0 2.479.953 4.668 2.856 6.571l32.548 32.544c1.903 1.903 4.093 2.852 6.567 2.852s4.665-.948 6.567-2.852l186.148-186.148 50.251 50.248c3.614 3.617 7.898 5.426 12.847 5.426s9.233-1.809 12.851-5.426c3.617-3.616 5.424-7.898 5.424-12.847V54.818c-.001-4.952-1.814-9.232-5.428-12.847z"/></symbol><symbol id="facebook" viewBox="0 0 1792 1792"><path d="M1343 12v264h-157q-86 0-116 36t-30 108v189h293l-39 296h-254v759H734V905H479V609h255V391q0-186 104-288.5T1115 0q147 0 228 12z"/></symbol><symbol id="fleur-icon" viewBox="0 0 109.000000 113.000000"><path d="M46.9 17.7c-9.5 18-9.8 20.6-3.9 32.4 5.4 10.6 8 18.2 8 23.1 0 6.3-2.5 4.8-4-2.4-2.9-15-12.7-25.2-25.5-26.5-6.9-.7-9.7 0-14.1 3.9-6.3 5.6-7.7 11.5-4.8 20 1.6 4.8 8 13.2 9.4 12.3.4-.2 1-2.2 1.3-4.3 1.7-10.1 17.2-14.6 25.5-7.4 1.7 1.5 3.4 3.9 3.8 5.4.5 2.3.2 2.8-2 3.4-1.4.3-3.1 1.3-3.7 2.1-1.1 1.3-.8 1.4 2.5.7l3.9-.7-.7 3.9c-.8 4-3.1 8.4-4.4 8.4-.4 0-1.2-1-1.7-2.2-2.1-4.8-8.5-2.2-8.5 3.4 0 2.9 3 6.8 5.4 6.8C38.1 100 47 88.5 47 82.3c0-1.6.6-2.3 2-2.3 1.6 0 2 .7 2 3.5 0 1.9-.5 5.4-1.2 7.9-1 3.8-.9 5 1.2 10.5 1.2 3.4 2.6 6.4 3 6.6.4.3 1.9-2.6 3.3-6.4 2.4-6.5 2.5-7.1 1.1-11.6-2.1-7-1.9-10.5.6-10.5 1.3 0 2.1.9 2.5 2.7.3 1.6 1.8 5.3 3.3 8.3 4.5 8.8 11.9 11.2 15.2 4.9 1.3-2.2.6-5.2-1.6-7.4-2.3-2.2-4.9-1.8-6.2 1-.6 1.4-1.6 2.5-2.2 2.5-1.5 0-4-5.6-4-9.1 0-3 .2-3.1 3.1-2.5 2.7.5 3 .4 1.9-.9-.6-.8-2-1.7-3.1-2-2.7-.9-2.4-4.7.7-7.9 6.4-6.3 20-5.4 24.7 1.8.9 1.3 2 4.3 2.3 6.6l.7 4.1 2.8-2.7c4.5-4.3 7.9-12 7.9-17.7 0-13.5-10.9-20.5-25.3-16.3-10 2.9-19.4 15.1-20.5 26.8-.4 3.9-.8 4.8-2.3 4.8-3.9 0-1.7-9.3 5.7-25 2.9-6.4 5.4-12.6 5.4-13.7 0-3.3-2.4-9-9.3-22.1L54.3 3.8l-7.4 13.9z"/></symbol><symbol id="flickr" viewBox="0 0 1792 1792"><path d="M1376 128q119 0 203.5 84.5T1664 416v960q0 119-84.5 203.5T1376 1664H416q-119 0-203.5-84.5T128 1376V416q0-119 84.5-203.5T416 128h960zM826 896q0-88-62-150t-150-62-150 62-62 150 62 150 150 62 150-62 62-150zm564 0q0-88-62-150t-150-62-150 62-62 150 62 150 150 62 150-62 62-150z"/></symbol><symbol id="gscholar" viewBox="0 0 500.000000 500.000000"><path d="M229 2.7c-48.1 4.7-91 21.2-128.7 49.5-12 9-33 29.2-42.8 41.3C21.7 137.6 2 193.1 2 250c0 49.4 14 96.2 41 136.7 39.5 59.4 98.3 97.2 169.5 109 15.5 2.5 61.3 2.5 76 0 37.9-6.6 70.3-19.4 99.8-39.4 57.3-38.7 94.5-96.2 106.8-165 3-16.8 3.8-53.8 1.5-71.3-4.4-32.9-13.8-62.3-28.9-89.5C423.4 50.5 339.6 1.3 249 2.2c-9.1 0-18.1.3-20 .5zm166 84c-.1 1.3-2.3 3.6-8.2 8.6-3.7 3.1-6.1 6-6.9 8.4-1.7 5.2-.5 14.7 2.8 22.3l2.8 6.5.1 23.5c0 12.9.6 31.5 1.3 41.2.8 9.8 1.1 24 .9 31.5-.6 16-2.2 21.4-6.9 23.3-4.3 1.8-11.6.7-14.5-2.2-4.1-4.1-4.7-11.1-3.8-44.8.4-16.8.8-39.5.8-50.5l.1-20 3.3-7.7c3-7 4.2-15.4 2.6-17.1-.9-.9-8.8 4.3-18.4 12-4.7 3.8-12 9.5-16.4 12.7-11.4 8.7-14.6 11.9-14.6 15 0 1.5 1.7 8.1 3.7 14.9 4.9 16.1 5.1 25.6 1 36.7-3.7 10-8.8 17.3-16.7 23.8-21.9 18.1-24.6 21.9-23.7 32.9.8 10.1 4.9 15.2 23.3 29 8.2 6.1 16.9 13.3 19.3 16 11.6 12.7 16.8 35.7 12.6 55.5-5.4 25.5-27.9 44.2-62.5 51.9-22.1 4.9-44.7 4.7-65.3-.5-25.3-6.5-46.1-20.5-53.5-36.3-2.4-5.1-2.7-7-2.7-15.8 0-9.6.1-10.3 4.1-18.5 13.9-29.1 41.9-43.4 91-46.5l10.1-.7-3.4-5.6c-6.4-10.6-8.6-25.2-5.1-33.3l1.6-3.6-9.5-.7c-17.3-1.2-29.6-4.7-39.9-11.5-16.5-10.7-25.5-26.7-28.9-51.3l-.6-4.8-34.6-.2-34.6-.3 47.9-41.5c26.3-22.8 50.8-44.1 54.3-47.2l6.5-5.8h90.3c49.7 0 90.3.3 90.3.7z"/><path d="M233.9 128.4c-14.1 3.8-22.8 14.2-26.5 31.8-7.1 33.4 21.8 78.4 51.8 80.6 8.4.6 13.9-.9 20.1-5.4 10.1-7.3 16.7-21.4 17.5-37.1.5-11.9-.7-19.6-4.9-30.1-11.4-28.7-36.2-45.7-58-39.8zM239.4 302.5c-23.8 4.3-41.7 15.1-48 29-3.7 8-5.1 17.9-3.6 25.7 4.6 24.5 28.2 40.7 61.8 42.5 45.9 2.4 76-22.9 68-57.1-2.3-9.6-6-15.8-13.3-22.6-16.3-14.9-41.6-21.8-64.9-17.5z"/></symbol><symbol id="heart" viewBox="0 0 1792 1792"><path d="M896 1664q-26 0-44-18l-624-602q-10-8-27.5-26T145 952.5 77 855 23.5 734 0 596q0-220 127-344t351-124q62 0 126.5 21.5t120 58T820 276t76 68q36-36 76-68t95.5-68.5 120-58T1314 128q224 0 351 124t127 344q0 221-229 450l-623 600q-18 18-44 18z"/></symbol><symbol id="instagram" viewBox="0 0 1792 1792"><path d="M1490 1426V778h-135q20 63 20 131 0 126-64 232.5T1137 1310t-240 62q-197 0-337-135.5T420 909q0-68 20-131H299v648q0 26 17.5 43.5T360 1487h1069q25 0 43-17.5t18-43.5zm-284-533q0-124-90.5-211.5T897 594q-127 0-217.5 87.5T589 893t90.5 211.5T897 1192q128 0 218.5-87.5T1206 893zm284-360V368q0-28-20-48.5t-49-20.5h-174q-29 0-49 20.5t-20 48.5v165q0 29 20 49t49 20h174q29 0 49-20t20-49zm174-208v1142q0 81-58 139t-139 58H325q-81 0-139-58t-58-139V325q0-81 58-139t139-58h1142q81 0 139 58t58 139z"/></symbol><symbol id="linkedin" viewBox="0 0 1792 1792"><path d="M477 625v991H147V625h330zm21-306q1 73-50.5 122T312 490h-2q-82 0-132-49t-50-122q0-74 51.5-122.5T314 148t133 48.5T498 319zm1166 729v568h-329v-530q0-105-40.5-164.5T1168 862q-63 0-105.5 34.5T999 982q-11 30-11 81v553H659q2-399 2-647t-1-296l-1-48h329v144h-2q20-32 41-56t56.5-52 87-43.5T1285 602q171 0 275 113.5t104 332.5z"/></symbol><symbol id="logo-shield" viewBox="262.4 209.4 100 140"><path d="M335.6 220.5c-13.2-1-23.3-6.1-23.3-6.1s-10.4 5.2-23.3 6.1c-11.6.9-22.7-4.4-22.7-4.4v74.2c0 16.7.8 22 10.7 33.6s35.4 20.8 35.4 20.8 25.5-9.3 35.4-20.8c9.9-11.6 10.4-16.5 10.4-33.3v-74.1s-10.9 4.8-22.6 4zm-52.7 16.3c3-.5 13.1-2.3 17.7-3.8l.6 3.5c-2.2.6-7 2.6-7.5 9.4-2.4.2-4.7.4-7 .7-.6-4.8-1.9-7.9-3.9-9.4l.1-.4zm4 40.5v-18.2l.3-.4c2-.3 4.1-.5 6.4-.7v15.5c0 .2-.1 4.8 1.1 7.8 1.4 3.5 3.5 5.6 10.6 6.2v9.4c-5.9-.6-10.7-2.6-14.1-6.1-1.3-1.1-4.3-5.1-4.3-13.5zm50.7 0c0 8.4-2.9 12.2-4.1 13.5-3.5 3.5-8.3 5.5-14.1 6.1v-9.4c7.1-.7 9.2-2.7 10.5-6.2 1.2-3.1 1.1-7.6 1.1-7.8V258c2.2.2 4.4.4 6.4.7l.3.4-.1 18.2zm13.1-11.4l-4.5 2.6-6.9-9.9-1-1.4h-.2c-2.6-.4-5.3-.6-7.8-.8-.3 0-.7-.1-1-.1-6.2-.4-11-.4-11.1-.4h-.5V301.6c0 3.6.6 6.9 4.8 6.9h6.3v10.1h-33v-10.1h6.3c4.2 0 4.8-3.3 4.8-6.9v-45.7h-.5c-.1 0-4.9 0-11.1.4-.3 0-.7 0-1 .1-2.5.2-5.2.5-7.8.8h-.2l-1 1.4-6.9 9.9-4.5-2.6 4.6-16.4c.7-.2 3-.7 6.7-1.2.3 0 .6-.1 1-.1 2.2-.3 4.8-.6 8-.8.3 0 .6-.1.9-.1 4.7-.4 10.4-.6 17.1-.6 6.7 0 12.3.3 17.1.6.3 0 .6 0 .9.1 3.1.3 5.9.5 8.1.8.4 0 .7.1 1 .1 3.7.5 6 1 6.8 1.2l4.6 16.4zm-8.9-28.8c-2 1.5-3.3 4.6-3.9 9.4-2.2-.3-4.5-.5-7-.7-.5-6.8-5.3-8.8-7.5-9.4l.6-3.5c4.5 1.6 14.6 3.3 17.7 3.8l.1.4z"/><path d="M361.4 210c-.1.1-12.1 7.1-24.1 6.2-13.7-1-24.4-6.4-24.5-6.4l-.3-.2-.3.2c-.1.1-10.8 5.4-24.5 6.4-12 .9-24-6.1-24.1-6.2l-1-.6v81.8c0 17.7 1.1 23.2 11.9 35.7 10.5 12.2 36.8 21.9 37.9 22.3l.2.1.2-.1c1.1-.4 27.3-10.1 37.9-22.3 10.8-12.5 11.9-17.9 11.9-35.7v-81.8l-1.2.6zm-.4 81.2c0 17.4-1.1 22.7-11.6 34.9-9.8 11.4-34.4 20.8-37.1 21.8-2.6-1-27.3-10.5-37.1-21.8-10.5-12.1-11.6-17.5-11.6-34.9v-79.7c3.1 1.7 13.4 6.6 23.9 5.8 12.7-.9 22.9-5.5 24.7-6.4 1.8.9 12 5.5 24.7 6.4 10.5.8 20.8-4.1 23.9-5.8v79.7z"/></symbol><symbol id="logo-text-short" viewBox="-137.5 230.9 263.29999 76.900002"><path d="M-100.1 294.6v-57.2h6.1c12.2 0 15.3 2.4 17.6 14.7h2.7l-.7-18.4h-62.4l-.7 18.3h2.7c2.4-12.2 5.4-14.6 17.6-14.6h6.2v56c0 8.2 0 10.8-11 11.2v2.4h32.9v-2.4c-9.8-.4-11-2.5-11-10z"/><path d="M-37.9 301.1c-7.3.2-7.3-2.3-7.3-6.3v-37.9h-17.1v1.7c7.3.2 8.5 2.5 8.5 7v26.1c0 3.7-1.2 4.8-2.2 5.7-3 2.4-6.7 4-10.1 4-7.3 0-8.5-6.9-8.5-8.4v-36h-15.8v1.3c3.7.2 7.3.4 7.3 7.1v28c0 11.8 8.5 14.4 13 14.4 2 0 7.2-.5 11.5-4.8l4.8-4.8v9.2l.3.2c5.2-1.9 9.4-3.4 15.5-5l.1-1.5z"/><path d="M-22 297.3v-66.2l-.6-.2c-5.9 1.9-11.7 3.4-17.8 4.9v1.7c1.2-.1 2.2-.2 3.7-.2 4.3 0 4.9 1.8 4.9 6.8v53c0 6.1-1.2 7.5-8.5 8v2h26.9v-2c-7.4-.4-8.6-1.3-8.6-7.8z"/><path d="M30.4 299.3c-1.2 1-2.2 2.1-4.6 2.1-3.2 0-2.8-3.2-2.8-6.4v-21.6c0-6.7-.3-17.8-16.9-17.8-12.9 0-18.4 7.9-18.4 12.3 0 1.8 1.3 4.9 4.8 4.9 2.9 0 5-2.4 5-4.8 0-1-.6-2.7-.6-4.3 0-3.4 4.2-5.4 7.8-5.4 3.3 0 8.5 1.2 8.5 9.2v6.8c-18.3 7.1-27.7 10.9-27.7 22 0 7.4 5.8 11.5 11.8 11.5 6.1 0 12-4.4 16.1-8.1.6 8 5.2 8.1 7.2 8.1 1.8 0 4.9-.1 9.8-5.6v-2.9zM13.3 293c0 3.3-.4 4.7-3.8 6.3-1 .5-4.5 2-6.9 2-4.1 0-7.6-3.4-7.6-8.7v-.1c0-3.8 1.2-10 18.3-15.5v16z"/><path d="M75.5 297.7v-25.4c0-13.6-7.9-16.6-13-16.6-6.5 0-10.2 3.9-16.3 9v-8.8l-.7-.2c-5.1 1.9-10.3 3.6-15.2 5v1.8c0-.2 1.8-.4 3.3-.4 1.8 0 4 .1 4 7.1v27.5c0 6.6-1.2 8-7.3 8.3v2h23.2v-2c-4.9-.3-6.1-2.1-6.1-5.8V268c3.7-4.1 7.1-6.3 10.4-6.3 6.5 0 7.9 4 7.9 10.8v23.2c0 8.4-2.4 9-6.1 9.3v2h23.2v-2c-6.1-.4-7.3-2.1-7.3-7.3zM106.9 300.4c-7.3 0-16.3-4.4-17.6-23.9h34.4c-1.2-14.7-9.1-20.6-19.5-20.6-8.9 0-22.6 6.5-22.6 27 0 15.8 8.4 24.9 20.7 24.9 16 0 22.4-15.1 23.5-18.5l-1.8-.6c-2.5 4-7.3 11.7-17.1 11.7zm-5.1-40.4c8.8 0 9.9 6.7 10.7 12.8H89.6c1.8-9.8 6.1-12.8 12.2-12.8z"/></symbol><symbol id="logo-text" viewBox="-137.5 230.9 680 100"><path d="M-100 295.1v-57.2h6.1c12.2 0 15.3 2.4 17.6 14.7h2.7l-.7-18.4h-62.4l-.7 18.3h2.7c2.4-12.2 5.4-14.6 17.6-14.6h6.2v56c0 8.2 0 10.8-11 11.2v2.4H-89v-2.4c-9.8-.4-11-2.5-11-10z"/><path d="M-37.8 301.6c-7.3.2-7.3-2.3-7.3-6.3v-37.9h-17.1v1.7c7.3.2 8.5 2.5 8.5 7v26.1c0 3.7-1.2 4.8-2.2 5.7-3 2.4-6.7 4-10.1 4-7.3 0-8.5-6.9-8.5-8.4v-36h-15.8v1.3c3.7.2 7.3.4 7.3 7.1v28c0 11.8 8.5 14.4 13 14.4 2 0 7.2-.5 11.5-4.8l4.8-4.8v9.2l.3.2c5.2-1.9 9.4-3.4 15.5-5l.1-1.5z"/><path d="M-21.9 297.8v-66.2l-.6-.2c-5.9 1.9-11.7 3.4-17.8 4.9v1.7c1.2-.1 2.2-.2 3.7-.2 4.3 0 4.9 1.8 4.9 6.8v53c0 6.1-1.2 7.5-8.5 8v2h26.9v-2c-7.4-.4-8.6-1.3-8.6-7.8z"/><path d="M30.5 299.8c-1.2 1-2.2 2.1-4.6 2.1-3.2 0-2.8-3.2-2.8-6.4v-21.6c0-6.7-.3-17.8-16.9-17.8-12.9 0-18.4 7.9-18.4 12.3 0 1.8 1.3 4.9 4.8 4.9 2.9 0 5-2.4 5-4.8 0-1-.6-2.7-.6-4.3 0-3.4 4.2-5.4 7.8-5.4 3.3 0 8.5 1.2 8.5 9.2v6.8c-18.3 7.1-27.7 10.9-27.7 22 0 7.4 5.8 11.5 11.8 11.5 6.1 0 12-4.4 16.1-8.1.6 8 5.2 8.1 7.2 8.1 1.8 0 4.9-.1 9.8-5.6v-2.9zm-17.1-6.3c0 3.3-.4 4.7-3.8 6.3-1 .5-4.5 2-6.9 2-4.1 0-7.6-3.4-7.6-8.7v-.1c0-3.8 1.2-10 18.3-15.5v16z"/><path d="M75.6 298.2v-25.4c0-13.6-7.9-16.6-13-16.6-6.5 0-10.2 3.9-16.3 9v-8.8l-.7-.2c-5.1 1.9-10.3 3.6-15.2 5v1.8c0-.2 1.8-.4 3.3-.4 1.8 0 4 .1 4 7.1v27.5c0 6.6-1.2 8-7.3 8.3v2h23.2v-2c-4.9-.3-6.1-2.1-6.1-5.8v-31.2c3.7-4.1 7.1-6.3 10.4-6.3 6.5 0 7.9 4 7.9 10.8v23.2c0 8.4-2.4 9-6.1 9.3v2h23.2v-2c-6.1-.4-7.3-2.1-7.3-7.3zM107 300.9c-7.3 0-16.3-4.4-17.6-23.9h34.4c-1.2-14.7-9.1-20.6-19.5-20.6-8.9 0-22.6 6.5-22.6 27 0 15.8 8.4 24.9 20.7 24.9 16 0 22.4-15.1 23.5-18.5l-1.8-.6c-2.5 4-7.3 11.7-17.1 11.7zm-5.1-40.4c8.8 0 9.9 6.7 10.7 12.8H89.7c1.8-9.8 6.1-12.8 12.2-12.8zM219.5 233h-25.6v2.4c7.3.4 9.8 2.3 9.8 14.2v30c0 9-.8 12.7-2.2 15.1-3.2 5.2-9.2 8.8-17.8 8.8-19.3 0-19-15.4-19-22.5v-35.6c0-7.9 1.2-9.3 9.8-10V233h-31.7v2.4c8.5.6 9.8 1.8 9.8 10V280c0 6.7 0 28.3 27.5 28.3 28.7 0 28.7-20.9 28.7-29.7v-29c0-11.7 2.4-13.3 11-14.2V233h-.3zM276.6 242.3c3.3 0 5.8-2.4 5.8-5.7 0-3.1-2.4-5.7-5.8-5.7-3.9 0-5.5 3.5-5.5 5.7s1.5 5.7 5.5 5.7z"/><path d="M282.9 295.5v-39.4l-.8-.3c-5.8 2.1-11.4 4.2-17.5 6.1v1.7c1.2-.2 3-.4 4.5-.4 1.8 0 4 .1 4 6.7v25.8c0 8.7-2.4 9.3-8.5 9.7-6.1-.4-7.3-2.1-7.3-7.3v-25.7c0-13.6-7.9-16.6-13.1-16.6-6.5 0-10.2 3.9-16.3 9V256l-.7-.2c-5.1 1.9-10.3 3.6-15.2 5v1.9c1.2-.2 1.8-.4 3.3-.4 1.8 0 4 .1 4 7.1v27.5c0 6.6-1.2 8-7.3 8.3v1.1h24.4v-1.1c-6.1-.3-7.3-2.1-7.3-5.8v-31.2c3.7-4.1 7.7-6.3 11-6.3 6.6 0 8.6 4 8.6 10.8v23.2c0 8.4-3.7 9-7.3 9.3v1.1h48.8v-1.1c-7.3-.5-7.3-2.4-7.3-9.7zM336.5 258.5v-1.1h-15.9v1.1c2.4.1 5.1 1.1 5.1 3.7 0 4-8 21.3-11.7 32l-11.2-28.5c-.3-.9-.9-2.6-.9-3.9 0-2.8 2.9-3.1 5.3-3.3v-1.1h-22v1.1c2.4.1 4.3.8 6 4.1 4 7.9 14.6 33.6 17.2 40.5 1.8 4.8 2 5.2 3 5.2.8 0 1.9-2.6 3.1-5.5l14.4-35.6c2.7-6.6 2.8-8.3 7.6-8.7zM372.9 288.5c-2.5 4.1-7.3 11.6-17.2 11.6-7.3 0-16.3-4.8-17.6-24.4h34.4c-1.2-14.7-9.1-20.2-19.5-20.2-8.9 0-22.6 6.9-22.6 27.5 0 15.8 8.4 24.9 20.8 24.9 16 0 22.4-15.1 23.5-18.5l-1.8-.9zm-22.2-29.2c8.8 0 9.9 7.9 10.7 12.8h-22.9c1.8-9.8 6.1-12.8 12.2-12.8z"/><path d="M402.1 255.8c-4.2 0-8 1.6-13.1 10.1V256l-.6-.2c-5.4 2.2-11.6 4.2-16.5 6v1.8c1.2-.2 2-.4 3.6-.4 1.8 0 3.7.1 3.7 6.7v27.8c0 6.2-1.2 6.5-7.3 7.7v1.1h26.8v-1.1c-6.1-.2-9.8-.7-9.8-8.3v-25c0-3.5 4.7-9.1 7.4-9.1s3.6 3.9 7.5 3.9c2.7 0 4.2-2.1 4.2-4.9.1-3.9-2.1-6.2-5.9-6.2zM432.6 280.5l-12-7.1c-4.1-2.4-4.8-5.6-4.8-7.9 0-2.9 2.3-7.2 8.4-7.2 4.9 0 9.9 2.7 12.3 13.7h1.7l-.4-15.9h-1.2c-.3 1.2-.9 1.5-1.9 1.5-1.9 0-5.3-2-10.2-2-10.8 0-15.5 7.3-15.5 13.6 0 8.2 6.1 12.3 13 16.2l6.4 3.7c3.6 2 5.8 4.7 5.8 8.3 0 6.3-5.2 8.2-9 8.2-10.9 0-13-10.4-14.3-15.3h-1.3v17.1h.9c.7-1.2 1.1-1.5 2.4-1.5 3.1-.1 7.9 1.9 12.9 1.9 7.1 0 16.1-4.7 16.1-14.3 0-6.6-3.9-9.7-9.3-13z"/><path d="M459.7 295.5v-39.4l-.2-.3c-5.8 2.1-12 4.2-16.9 6.1v1.7c1.2-.2 2.4-.4 3.9-.4 1.8 0 3.4.1 3.4 6.7v25.8c0 8.7-1.2 9.3-8.5 9.7v1.1h26.9v-1.1c-7.4-.7-8.6-2.6-8.6-9.9zM454 242.3c3.3 0 5.8-2.4 5.8-5.7 0-3.1-2.4-5.7-5.8-5.7-3.9 0-5.6 3.5-5.6 5.7s1.6 5.7 5.6 5.7zM483.7 302.1c-5.7 0-5.8-6.6-5.8-10v-32.2h12.2v-2.4H478V244c0-.9.2-1.5-.6-1.5-4.1 5.9-5.6 8.3-9.8 12.6-2.4 2.4-4.9 3-4.9 4.3 0 .3.2.5.4.5h6.4v33.9c0 11.1 4.3 14.1 10 14.1 5.1 0 10.1-3.7 12.7-8.4l-1.5-1.2c-1.3 1.4-3.4 3.8-7 3.8zM528 257.4v1.1c2.4-.1 4.9 1 4.9 3.1 0 1-1.8 4.5-3 7.5l-8.6 24.6-12.7-28.1c-.3-.8-.9-2.6-.9-4 0-3 4.4-3.1 6.8-3.2v-1.1h-23.2v1c1.2.2 4.1.8 5.5 3.6l12.5 27.3c1.6 3.4 6.9 13.6 6.9 15.3 0 1.8-4.4 17.1-10.2 17.1-1.4 0-4.9-2-7.9-2-5.1 0-5.3 4.2-5.3 4.9 0 2.9 2.6 6.4 8.1 6.4 8.3 0 13.3-7.3 18.9-22.2l17.2-45.3c1.7-4.5 4.4-4.8 5.6-5v-1.1H528v.1z"/></symbol><symbol id="logo" viewBox="20.8 16.8 478 160"><path d="M153.6 80.3v1.8h27.9v-1.8c-8-.3-9.2-2.1-9.2-8.6V22.8h5.2c10.5 0 13.2 1.7 15.2 12.2h2.3l-.5-16.3h-54l-.5 16.4h2.3c2.1-10.4 4.7-12.2 15.3-12.2h5.2v47.7c-.2 7.1-.5 9.3-9.2 9.7z"/><path d="M194.7 39.1h-14v1.4c2.8.2 5.9.4 5.9 6.1v24.1c0 10.1 7.5 12.4 11.4 12.4 1.7 0 6.3-.4 10-4.1l4.1-4.1v7.9l.2.2c4.5-1.6 8.1-2.9 13.3-4.3v-1.4c-5.8.2-5.9-2-5.9-5.5V39.1h-15.2v1.6c6.7.2 7.1 2.2 7.1 6v22.5c0 3.2-.6 4.1-1.6 4.8-2.6 2.1-5.5 3.5-8.3 3.5-6.3 0-7.2-5.9-7.2-7.3V39.1h.2z"/><path d="M231.4 28.2v45.6c0 5.3-1.7 6.5-7.4 6.8v1.5h22.5v-1.5c-5.6-.3-7.2-1.1-7.2-6.6V17l-.4-.2c-5.1 1.6-10.1 2.9-15.3 4.2v1.6c1.2-.1 2-.2 3.3-.2 3.9 0 4.5 1.4 4.5 5.8zM246.4 73c0 6.4 4.9 10 10.1 10 5.3 0 10.3-3.8 13.9-6.9.5 6.8 4.5 6.9 6.2 6.9 1.6 0 4.5-.1 8.5-4.8v-2.5c-1.1.8-2.3 1.8-4.3 1.8-2.7 0-2.7-2.7-2.7-5.6V53.4c0-5.8 0-15.2-14.2-15.2-11.1 0-15.6 6.7-15.6 10.6 0 1.6 1.2 4.2 4.1 4.2 2.5 0 4.3-2.1 4.3-4.1 0-.8-.5-2.3-.5-3.7 0-2.9 3.7-4.6 6.8-4.6 2.8 0 7.4 1.1 7.4 7.9v5.8c-15.7 6-24 9.3-24 18.7zm23.9-2.7c0 2.8-.3 4-3.3 5.5-.8.4-3.8 1.7-5.9 1.7-3.6 0-6.3-2.9-6.3-7.5v-.2c0-3.3 1.1-8.6 15.5-13.4v13.9zM291.1 49.8v23.7c0 5.7-1.5 6.8-5.9 7.1v1.5h20.3v-1.5c-4.9-.3-6.3-1.8-6.3-4.9V48.9c3.7-3.6 6.6-5.5 9.5-5.5 5.7 0 7.4 3.5 7.4 9.3v20c0 7.3-2.5 7.8-6 8v1.5H330v-1.5c-4.6-.4-5.8-1.8-5.8-6.3v-22c0-11.8-6.8-14.3-11.2-14.3-5.7 0-9.3 3.4-14 7.8v-7.6l-.6-.2c-4.4 1.6-9 3-13.2 4.3V44c.4-.2 1.5-.4 2.7-.4 1.4 0 3.2.1 3.2 6.2zM347.2 83c13.8 0 19.4-13 20.3-16l-1.6-.6c-2.2 3.6-6.3 10-14.8 10-6.3 0-14.1-3.9-15.3-20.8h29.8c-1.1-12.5-7.9-17.5-16.8-17.5-7.7 0-19.5 5.8-19.5 23.5 0 13.5 7.3 21.4 17.9 21.4zm-.5-41.4c7.6 0 8.5 6.4 9.2 10.9h-19.7c1.5-8.4 5.2-10.9 10.5-10.9zM220 92.6h-22.2v1.8c6.7.4 9 2 9 12.2v25.8c0 7.8-.9 10.9-2.2 13-2.7 4.5-8.2 7.6-15.7 7.6-16.6 0-16.6-13.2-16.6-19.3V103c0-6.7 1.2-8 8.7-8.6v-1.8h-27.1v1.8c7.3.5 8.6 1.6 8.6 8.6v29.9c0 5.7 0 24.4 23.7 24.4 24.7 0 24.7-18 24.7-25.7v-24.9c0-10 1.6-11.5 9-12.2v-1.9h.1zM264.7 95.5c0 1.8 1.4 4.8 4.7 4.8 2.8 0 4.9-2.1 4.9-4.8 0-2.6-2.1-4.8-4.9-4.8-3.3-.1-4.7 2.9-4.7 4.8z"/><path d="M274.3 146.1v-34l-.4-.3c-4.9 1.8-9.9 3.7-14.8 5.3v1.5c1.3-.2 2.5-.4 3.8-.4 1.6 0 3.4.1 3.4 5.7V146c0 7.5-1.6 8-7.5 8.3-4.6-.4-5.8-1.8-5.8-6.3v-21.9c0-11.8-6.8-14.3-11.2-14.3-5.7 0-9.3 3.4-14 7.8V112l-.6-.2c-4.4 1.6-9 3-13.2 4.3v1.6c.4-.2 1.5-.4 2.7-.4 1.5 0 3.4.1 3.4 6.1V147c0 5.7-1.5 6.8-5.9 7.1v1.5h20.3v-1.5c-4.9-.3-6.3-1.8-6.3-4.9v-26.8c3.6-3.6 6.6-5.5 9.5-5.5 5.7 0 7.4 3.5 7.4 9.3v20c0 7.3-2.5 7.8-6 8v1.5H281.5v-1.5c-6.6-.1-7.2-1.8-7.2-8.1zM320.7 114.4v-1.5h-13.3v1.5c2.4.1 4.5.9 4.5 3.2 0 3.5-6.7 18.3-10 27.5l-9.8-24.5c-.3-.7-.8-2.2-.8-3.4 0-2.4 2.1-2.6 4.4-2.8v-1.5H277v1.5c1.9.1 3.8.6 5.3 3.6 3.5 6.7 12.6 28.9 15 34.9 1.6 4.1 1.7 4.5 2.6 4.5.6 0 1.6-2.2 2.6-4.7l12.2-30.7c2-5.9 2.7-7.4 6-7.6zM352.7 140.2c-2.2 3.6-6.3 10-14.8 10-6.3 0-14.1-3.9-15.3-20.8h29.8c-1.1-12.5-7.9-17.5-16.8-17.5-7.7 0-19.5 5.8-19.5 23.5 0 13.6 7.3 21.4 17.9 21.4 13.8 0 19.4-13 20.3-16l-1.6-.6zm-19.2-24.8c7.6 0 8.5 6.4 9.2 10.9H323c1.5-8.4 5.2-10.9 10.5-10.9z"/><path d="M377.8 111.9c-3.7 0-6.8 1.9-11.4 8.7h-.2v-8.5l-.5-.2c-4.7 1.9-9.5 3.7-14.1 5.2v1.6c.8-.2 1.9-.4 3.3-.4 1.6 0 3.4.1 3.4 5.7v23.9c0 5.4-1.6 5.7-6.8 6.6v1.5h23v-1.5c-4.8-.2-8.1-.5-8.1-7.1V126c0-3 4.2-7.9 6.5-7.9s3.3 3.4 6.6 3.4c2.3 0 3.7-1.8 3.7-4.2-.2-3.4-2.1-5.4-5.4-5.4zM404.3 133.3l-10.3-6.1c-3.6-2.1-4.1-4.8-4.1-6.8 0-2.5 2-6.2 7.3-6.2 4.2 0 8.5 2 10.6 11.8h1.5l-.4-13.1h-1.1c-.3.4-.7 1.1-1.6 1.1-1.6 0-4.6-1.9-8.8-1.9-9.3 0-13.4 6.3-13.4 11.7 0 7 5.3 10.6 11.2 14l5.6 3.2c3.1 1.7 4.9 4 4.9 7 0 5.5-4.5 6.9-7.8 6.9-9.4 0-11.2-8.3-12.3-13.4H384v14.9h1.3c.5-.8.9-1.2 2.1-1.2 2.6-.1 6.8 1.7 11.1 1.7 6.1 0 13.9-4 13.9-12.3-.1-5.9-3.5-8.5-8.1-11.3zM422.7 100.4c2.8 0 4.9-2.1 4.9-4.8 0-2.6-2.1-4.8-4.9-4.8-3.4 0-4.8 3-4.8 4.8.1 1.7 1.3 4.8 4.8 4.8z"/><path d="M427.6 146.1v-34l-.4-.3c-4.9 1.8-9.9 3.7-14.8 5.3v1.5c1.3-.2 2.5-.4 3.8-.4 1.6 0 3.4.1 3.4 5.7V146c0 7.5-1.6 8-7.6 8.3v1.5h22.6v-1.5c-6.5-.2-7-1.9-7-8.2zM448.6 151.9c-4.8 0-4.8-5.7-4.8-8.6V116h9.7v-3h-9.7v-11c0-.7 0-1.3-.6-1.3-3.6 5-4.9 7.1-8.6 10.9-2.1 2.1-4.2 2.6-4.2 3.8 0 .3.2.5.4.6h5.1v28.8c0 9.6 3.9 12.1 8.8 12.1 4.4 0 9-3.2 11.2-7.3l-1.3-1.1c-1.2 1.3-2.9 3.4-6 3.4z"/><path d="M485.9 112.9v1.5c3.1-.1 4.6.8 4.6 2.6 0 .8-1.3 3.9-2.2 6.5l-7.5 21.2-11-24.2c-.3-.6-.9-2.2-.9-3.5 0-2.5 3.4-2.6 5.6-2.7v-1.5h-19.7v1.4c1.3.2 3.7.6 4.8 3l11 23.5c1.4 2.9 5.9 11.8 5.9 13.1 0 1.6-3.8 14.7-8.8 14.7-1.3 0-4.2-1.7-6.8-1.7-4.4 0-4.6 3.7-4.6 4.2 0 2.5 2.2 5.6 7 5.6 7.2 0 11.4-6.3 16.3-19.1l14.7-39c1.5-3.9 3.4-4.1 4.6-4.3v-1.5l-13 .2zM99.8 24.5c-14.4-1.1-25.8-6.7-25.9-6.8l-.3-.2-.3.2c-.1.1-11.4 5.8-25.9 6.8C34.8 25.4 22 18 21.9 18l-1.1-.6v87.4c0 18.9 1.2 24.8 12.5 38.2 11.2 13 38.8 23.3 39.9 23.9l.2.1.2-.1c1.2-.4 28.7-10.7 39.9-23.9 11.4-13.4 12.5-19.1 12.5-38.2V17.3l-1.1.6c.3.2-12.3 7.5-25.1 6.6zm25.2 80.2c0 18.6-1.2 24.2-12.2 37.2-10.3 12.1-36.3 22.3-39.1 23.3-2.7-1.1-28.7-11.1-39.1-23.3-11.1-13-12.2-18.7-12.2-37.2v-85c3.4 1.8 14.1 6.9 25.3 6.2 13.4-1 24.1-5.9 26.1-6.9 2 .9 12.6 5.9 26.1 6.8 11.2.8 21.9-4.4 25.3-6.2l-.2 85.1z"/><path d="M98.3 29.1c-13.9-1.1-24.6-6.5-24.6-6.5S62.7 28 49 29.1c-12.3.9-24-4.7-24-4.7v79.1c0 17.8.8 23.5 11.3 35.8 10.5 12.3 37.3 22.2 37.3 22.2s26.7-9.9 37.3-22.2c10.5-12.3 11.1-17.7 11.1-35.4v-79c-.1 0-11.4 5.1-23.7 4.2zM42 45.9c2.4-.4 15.3-2.6 19.7-4.4l.9 5.2c-1.9.3-7.7 2.1-8 10.1-3.4.3-6.2.6-8.5.9-.4-4.2-1.6-8.8-4.3-10.4l.2-1.4zm4.2 44V70.2l.6-.8c2.6-.4 5.3-.6 7.8-.8v17.3c0 .2-.1 4.9 1.2 8 1.4 3.7 3.6 5.7 11.2 6.3v11.5c-4.8-.4-11.2-1.8-16.1-6.7-1.4-1.6-4.7-6-4.7-15.1zm54.8 0c0 9.1-3.2 13.6-4.5 15-4.9 4.9-11.3 6.4-16.1 6.7v-11.5c7.6-.6 9.8-2.6 11.2-6.3 1.2-3.2 1.2-7.9 1.2-8V68.5c2.5.2 5.2.4 7.8.8l.6.8v19.7h-.2zm13-12.2l-4.8 2.7-7.3-10.5-.5-.7-.5-.7h-.2c-2.7-.4-5.6-.6-8.2-.8h-1c-6.5-.4-11.6-.4-11.7-.4h-.5v48.6c0 3.8.6 7.3 5.2 7.3H91v10.7H56.4v-10.7H63c4.5 0 5.2-3.5 5.2-7.3V67.2h-.5c-.1 0-5.2 0-11.7.4h-1c-2.6.2-5.4.5-8.2.8h-.2l-.6.8-.5.7-7.3 10.5-4.8-2.7 4.8-17.6c.7-.2 3.2-.7 7.1-1.3.2 0 .3 0 .5-.1.2 0 .3 0 .5-.1 2.3-.3 5.2-.6 8.4-.8h.9c4.9-.4 11-.6 18-.6 7.1 0 13.1.3 18 .6h.9l8.4.8c.2 0 .3 0 .5.1.2 0 .3 0 .5.1 3.9.5 6.3 1.1 7.1 1.3l5 17.6zm-8.6-30.5c-2.7 1.6-3.9 6.3-4.3 10.4-2.4-.3-5.3-.6-8.6-.9-.3-8-6.1-9.8-8-10.1l.9-5.2c4.4 1.8 17.4 4 19.7 4.4l.3 1.4z"/></symbol><symbol id="map-marker" viewBox="-686.5 720.5 64 98"><path d="M-627.4 768.3l-27.1 35.9-27.1-35.9h.1c-3.2-4.8-5-10.5-5-16.7 0-17.2 14.3-31.1 32-31.1s32 13.9 32 31.1c0 6.2-1.8 11.9-4.9 16.7zm-27.1-28.7c-6.8 0-12.3 5.4-12.3 12s5.5 12 12.3 12 12.3-5.4 12.3-12-5.5-12-12.3-12zm0 69.3c17.7 0 32 2.2 32 4.8 0 2.6-14.3 4.8-32 4.8s-32-2.2-32-4.8c0-2.6 14.3-4.8 32-4.8z"/></symbol><symbol id="person" viewBox="-464 407 64 64"><path d="M-432 436.5c8.1 0 14.7-6.6 14.7-14.8 0-8.2-6.6-14.7-14.7-14.7s-14.7 6.6-14.7 14.8c0 8.2 6.6 14.7 14.7 14.7zM-426.6 439h-10.8c-12 0-21.6 9.6-21.6 21.7V471h54v-10.3c0-12.1-9.6-21.7-21.6-21.7z"/></symbol><symbol id="pinterest-p" viewBox="0 0 1792 1792"><path d="M256 597q0-108 37.5-203.5T397 227t152-123 185-78T936 0q158 0 294 66.5T1451 260t85 287q0 96-19 188t-60 177-100 149.5-145 103-189 38.5q-68 0-135-32t-96-88q-10 39-28 112.5t-23.5 95-20.5 71-26 71-32 62.5-46 77.5-62 86.5l-14 5-9-10q-15-157-15-188 0-92 21.5-206.5T604 972t52-203q-32-65-32-169 0-83 52-156t132-73q61 0 95 40.5T937 514q0 66-44 191t-44 187q0 63 45 104.5t109 41.5q55 0 102-25t78.5-68 56-95 38-110.5 20-111 6.5-99.5q0-173-109.5-269.5T909 163q-200 0-334 129.5T441 621q0 44 12.5 85t27 65 27 45.5T520 847q0 28-15 73t-37 45q-2 0-17-3-51-15-90.5-56t-61-94.5-32.5-108T256 597z"/></symbol><symbol id="play-icon" viewBox="408 184 64 64"><path d="M440 184c-17.7 0-32 14.3-32 32s14.3 32 32 32 32-14.3 32-32-14.3-32-32-32zm0 59c-14.9 0-27-12.1-27-27s12.1-27 27-27 27 12.1 27 27-12.1 27-27 27z"/><path d="M432 226l20-10-20-10z"/></symbol><symbol id="search" viewBox="-510 429 64 64"><path d="M-446 487.7l-19-19.1c7.1-9.8 6.3-23.4-2.5-32.3-9.7-9.8-25.6-9.8-35.2 0-9.7 9.8-9.7 25.5 0 35.2 8.9 8.9 22.6 9.7 32.4 2.4l19 19.1 5.3-5.3zm-51.4-21.3c-6.7-6.7-6.7-17.8 0-24.5 6.7-6.7 17.7-6.7 24.5 0 6.7 6.7 6.7 17.8 0 24.5-6.7 6.8-17.8 6.8-24.5 0z"/></symbol><symbol id="star" viewBox="0 0 1792 1792"><path d="M1728 647q0 22-26 48l-363 354 86 500q1 7 1 20 0 21-10.5 35.5T1385 1619q-19 0-40-12l-449-236-449 236q-22 12-40 12-21 0-31.5-14.5T365 1569q0-6 2-20l86-500L89 695q-25-27-25-48 0-37 56-46l502-73L847 73q19-41 49-41t49 41l225 455 502 73q56 9 56 46z"/></symbol><symbol id="twitter" viewBox="0 0 1792 1792"><path d="M1684 408q-67 98-162 167 1 14 1 42 0 130-38 259.5T1369.5 1125 1185 1335.5t-258 146-323 54.5q-271 0-496-145 35 4 78 4 225 0 401-138-105-2-188-64.5T285 1033q33 5 61 5 43 0 85-11-112-23-185.5-111.5T172 710v-4q68 38 146 41-66-44-105-115t-39-154q0-88 44-163 121 149 294.5 238.5T884 653q-8-38-8-74 0-134 94.5-228.5T1199 256q140 0 236 102 109-21 205-78-37 115-142 178 93-10 186-50z"/></symbol><symbol id="website" viewBox="0 0 512.000000 512.000000"><path d="M240 .6c-21.9 1.9-38.7 4.9-56 10C113.9 31.2 54.7 82.2 24 148.5c-3.6 7.7-11 26.6-11 28 0 .3 9.3.5 20.8.5h20.7l3.8-8.8c2-4.9 6.6-13.7 10-19.6l6.3-10.8 20.4.1c11.2.1 20.5.3 20.6.4.1.1-.9 3.9-2.2 8.4-1.3 4.6-3.5 13.2-4.8 19.3l-2.4 11h40.6l2.1-8.8c1.2-4.8 3.6-13.5 5.4-19.4l3.2-10.8h197l3.2 10.8c1.8 5.9 4.2 14.6 5.4 19.4l2.1 8.8h40.6l-2.4-11c-1.3-6.1-3.5-14.7-4.8-19.3-1.3-4.5-2.3-8.3-2.2-8.4.1-.1 9.4-.3 20.6-.4l20.4-.1 6.3 10.8c3.4 5.9 8 14.7 10 19.6l3.8 8.8h20.8c11.4 0 20.7-.2 20.7-.5 0-1.5-7.5-20.5-11.3-28.7-37-79-111.7-133.7-198.2-145.4C278.6 1 248.6-.2 240 .6zm33.5 41.6c17.1 5 34.1 17.4 47.9 35.2 6 7.7 13.6 18.9 13.6 20.1 0 .3-35.5.5-79 .5-43.4 0-79-.2-79-.5 0-1.2 7.6-12.4 13.6-20.1 13.8-17.8 30.7-30.2 47.9-35.2 12.1-3.6 22.6-3.6 35 0zm-130.8 35c-2.5 4-6 10.3-7.8 14l-3.3 6.8h-11.4c-6.5 0-11.1-.4-10.8-.9 2.1-3.4 36.4-28.6 37.5-27.6.2.2-1.7 3.7-4.2 7.7zm244.8 7.3c4.4 3.5 9.8 7.9 12 9.9l4 3.5-11.5.1h-11.6l-3.3-6.8c-1.8-3.7-5.3-9.9-7.7-13.8-2.4-3.9-4.4-7.4-4.4-7.7 0-1.1 13.8 8 22.5 14.8zM6.2 214.7c-5.7 1.2-5.3 2.5 11.3 42.8 8.5 20.8 16 38.5 16.6 39.2.8.9 4.3 1.3 12.5 1.3 10.7 0 11.4-.1 12.8-2.3 1.4-2.1 19.9-41.8 20.8-44.6.2-.8 3 4.6 6.2 12 3.1 7.4 7.8 18.1 10.4 23.9l4.7 10.5 11.6.3c10 .2 11.7 0 13.1-1.5 2.7-3 34-75.2 33.6-77.6-.5-3.3-4.4-4.7-13.4-4.7-13.9 0-13-1-21.9 22.3-11.1 28.8-10.5 27.4-11.4 25.7-.5-.8-4.8-11-9.6-22.5-4.8-11.6-9.6-21.9-10.6-23-1.5-1.5-3.6-2-9.2-2.3-14-.7-12.6-2.1-24.9 25.8-5.9 13.4-10.9 23.8-11.2 23-.3-.8-4.1-11.6-8.5-23.9-4.4-12.3-8.5-22.9-9.1-23.5-1.1-1.1-19.7-1.8-23.8-.9zM182.5 214.7c-2.9.8-4.5 2.3-4.5 4.3 0 2.4 29.9 75.1 31.8 77.2 1.3 1.5 3.3 1.8 12.8 1.8 10.7 0 11.4-.1 12.7-2.3.8-1.2 5.9-12 11.3-24 7.1-15.5 10.1-21.2 10.6-20 4.4 10.8 19.2 44.1 20 45 .7.9 4.5 1.3 12.4 1.3 10.7 0 11.4-.1 12.8-2.3 2.4-3.7 33.6-74.9 33.6-76.8 0-3.5-2.9-4.4-14.6-4.4-8.8 0-11.6.3-12.7 1.5-.8.8-5.4 11.8-10.2 24.5-4.9 12.6-8.9 23.1-9 23.2 0 .1-4.5-10.3-9.9-23.2-5.4-12.9-10.5-24-11.4-24.7-2.3-2-20.7-1.8-22.6.2-1.2 1.2-10 20.7-20.2 44.9l-1.6 3.6-8.3-23.4c-4.7-12.9-9.1-24.2-10-25-1.2-1.2-4-1.6-11.3-1.8-5.3-.1-10.6.1-11.7.4zM356.8 215.1c-2.1.8-2.8 1.7-2.8 3.8 0 2.4 26.4 68.1 30.6 76.3l1.5 2.8h11.3c9.5 0 11.5-.3 12.9-1.8 1.5-1.6 18.7-38.3 20.1-43 1.1-3.3 2.2-2.7 4.1 2 4.8 12.2 17 39.5 18.3 41 1.3 1.5 3.3 1.8 12.7 1.8 7.8 0 11.6-.4 12.3-1.3.5-.6 8.5-18.3 17.6-39.2 18.8-42.5 18.6-41.8 10.1-43.1-2.6-.3-8.1-.4-12.3-.2-6 .4-7.9.9-9.1 2.5-.9 1.1-5.4 11.9-10.1 24.1-4.6 12.2-8.7 22.2-9 22.2-.3 0-3.6-7.6-7.4-16.8-3.8-9.2-8.4-19.9-10.2-23.9-3.2-7.1-3.2-7.2-7.8-7.8-7.6-1.2-16.4-.2-18.5 2.1-1 1-6 11.6-11.1 23.4-5.1 11.8-9.6 22.1-10 22.8-.4.8-4.1-8.3-8.9-22-4.6-12.8-8.9-24-9.7-24.8-1.8-1.8-20.5-2.5-24.6-.9zM13 335.5c0 1.4 7.4 20.3 11 28 30.7 66.3 89.9 117.3 160 137.9 24.4 7.2 44.5 10 72 10s47.6-2.8 72-10c70-20.5 128.7-71 159.7-137.2 3.8-8.2 11.3-27.2 11.3-28.7 0-.3-9.3-.5-20.7-.5h-20.8l-3.8 8.8c-2 4.9-6.6 13.7-10 19.6l-6.3 10.8-20.4-.1c-11.2-.1-20.5-.3-20.6-.4-.1-.1.9-3.9 2.2-8.4 1.3-4.6 3.5-13.2 4.8-19.3l2.4-11h-40.6l-2.1 8.7c-1.1 4.9-3.5 13.6-5.3 19.5l-3.3 10.8h-197l-3.7-12.3c-2-6.7-4.4-15.5-5.3-19.5l-1.7-7.2h-40.6l2.4 11c1.3 6.1 3.5 14.7 4.8 19.3 1.3 4.5 2.3 8.3 2.2 8.4-.1.1-9.4.3-20.6.4l-20.4.1-6.3-10.8c-3.4-5.9-8-14.7-10-19.6l-3.8-8.8H33.8c-11.5 0-20.8.2-20.8.5zm121.9 85.2c1.8 3.8 5.3 10 7.7 13.9 2.4 4 4.4 7.4 4.4 7.8 0 1.8-24.2-15.6-34.5-24.8l-4-3.5 11.5-.1h11.6l3.3 6.7zm200.1-6.2c0 1.2-7.6 12.4-13.6 20.1-27.3 35.1-63.2 46.7-94.9 30.6-12.6-6.3-25.8-17.6-35.9-30.6-6-7.7-13.6-18.9-13.6-20.1 0-.3 35.6-.5 79-.5 43.5 0 79 .2 79 .5zm64 3.7c-9.1 8.2-34 26-34 24.2 0-.4 2-3.8 4.4-7.8 2.4-3.9 5.9-10.1 7.7-13.9l3.3-6.7H392l11.5.1-4.5 4.1z"/></symbol><symbol id="x" viewBox="-432 390 64 64"><path d="M-391 422l22.4-22.3c.9-.9.9-2.2 0-3.1l-5.9-5.9c-.9-.9-2.2-.9-3.1 0L-400 413l-22.4-22.3c-.9-.9-2.2-.9-3.1 0l-5.9 5.9c-.9.9-.9 2.2 0 3.1L-409 422l-22.4 22.3c-.9.9-.9 2.2 0 3.1l5.9 5.8c.9.9 2.2.9 3.1 0l22.4-22.3 22.4 22.3c.9.9 2.2.9 3.1 0l5.9-5.8c.9-.9.9-2.2 0-3.1L-391 422z"/></symbol><symbol id="youtube" viewBox="0 0 1792 1792"><path d="M1099 1244v211q0 67-39 67-23 0-45-22v-301q22-22 45-22 39 0 39 67zm338 1v46h-90v-46q0-68 45-68t45 68zm-966-218h107v-94H266v94h105v569h100v-569zm288 569h89v-494h-89v378q-30 42-57 42-18 0-21-21-1-3-1-35v-364h-89v391q0 49 8 73 12 37 58 37 48 0 102-61v54zm429-148v-197q0-73-9-99-17-56-71-56-50 0-93 54V933h-89v663h89v-48q45 55 93 55 54 0 71-55 9-27 9-100zm338-10v-13h-91q0 51-2 61-7 36-40 36-46 0-46-69v-87h179v-103q0-79-27-116-39-51-106-51-68 0-107 51-28 37-28 116v173q0 79 29 116 39 51 108 51 72 0 108-53 18-27 21-54 2-9 2-58zM918 525V315q0-69-43-69t-43 69v210q0 70 43 70t43-70zm719 751q0 234-26 350-14 59-58 99t-102 46q-184 21-555 21t-555-21q-58-6-102.5-46t-57.5-99q-26-112-26-350 0-234 26-350 14-59 58-99t103-47q183-20 554-20t555 20q58 7 102.5 47t57.5 99q26 112 26 350zM639 0h102L620 399v271H520V399q-14-74-61-212Q422 84 394 0h106l71 263zm370 333v175q0 81-28 118-37 51-106 51-67 0-105-51-28-38-28-118V333q0-80 28-117 38-51 105-51 69 0 106 51 28 37 28 117zm335-162v499h-91v-55q-53 62-103 62-46 0-59-37-8-24-8-75V171h91v367q0 33 1 35 3 22 21 22 27 0 57-43V171h91z"/></symbol></svg>